<?xml version="1.0" encoding="UTF-8"?>
<svg version="1.1" xmlns="http://www.w3.org/2000/svg" width="500" height="500">
<path d="M0 0 C165 0 330 0 500 0 C500 165 500 330 500 500 C335 500 170 500 0 500 C0 335 0 170 0 0 Z " fill="#000000" transform="translate(0,0)"/>
<path d="M0 0 C0.66022156 0.00141495 1.32044312 0.0028299 2.00067139 0.00428772 C4.09945294 0.0098638 6.19812595 0.02241178 8.296875 0.03515625 C9.72395679 0.04017435 11.15104025 0.04473671 12.578125 0.04882812 C16.06778332 0.05897248 19.55720832 0.07855224 23.046875 0.09765625 C23.046875 9.66765625 23.046875 19.23765625 23.046875 29.09765625 C14.046875 29.34765625 14.046875 29.34765625 11.26171875 29.39550781 C4.14838966 29.68528751 -1.24753586 31.52734657 -6.453125 36.47265625 C-9.64520062 44.186839 -8.04441454 52.99683044 -7.453125 61.16015625 C-6.92766475 69.13617234 -6.73609669 77.10538266 -6.640625 85.09765625 C-6.61097656 86.35070557 -6.58132812 87.60375488 -6.55078125 88.89477539 C-6.49431219 97.66571445 -7.43456507 103.12799889 -13.390625 109.84765625 C-14.23625 110.59015625 -15.081875 111.33265625 -15.953125 112.09765625 C-16.71625 112.79890625 -17.479375 113.50015625 -18.265625 114.22265625 C-24.67057995 118.69122947 -31.27557923 119.64140865 -38.953125 120.09765625 C-38.953125 120.75765625 -38.953125 121.41765625 -38.953125 122.09765625 C-37.674375 122.01515625 -36.395625 121.93265625 -35.078125 121.84765625 C-26.54998271 121.88782019 -19.76564278 125.45950816 -13.64453125 131.234375 C-8.65583439 136.73000642 -6.83076133 142.4836956 -6.8203125 149.8359375 C-6.81837891 150.73030518 -6.81644531 151.62467285 -6.81445312 152.54614258 C-6.81896484 153.49126709 -6.82347656 154.4363916 -6.828125 155.41015625 C-6.83005859 156.39201904 -6.83199219 157.37388184 -6.83398438 158.38549805 C-6.87492446 165.35725335 -7.23173966 172.24890381 -7.71875 179.203125 C-7.9800785 183.54553363 -8.13925417 187.87333445 -8.203125 192.22265625 C-8.22439453 192.92173096 -8.24566406 193.62080566 -8.26757812 194.34106445 C-8.29930811 199.01613733 -7.41149951 202.13272443 -4.953125 206.09765625 C-0.95708303 209.70384047 1.51678272 211.18976079 6.8359375 211.4140625 C7.68365723 211.45217041 8.53137695 211.49027832 9.40478516 211.52954102 C10.4829248 211.57264404 11.56106445 211.61574707 12.671875 211.66015625 C16.095625 211.80453125 19.519375 211.94890625 23.046875 212.09765625 C23.046875 221.99765625 23.046875 231.89765625 23.046875 242.09765625 C18.32375 242.18015625 13.600625 242.26265625 8.734375 242.34765625 C7.26830811 242.38407227 5.80224121 242.42048828 4.29174805 242.45800781 C-9.5800399 242.57439605 -21.38336211 238.28334391 -31.765625 228.91015625 C-35.79564529 224.62350731 -37.87289918 219.53387138 -39.953125 214.09765625 C-40.38625 213.00453125 -40.819375 211.91140625 -41.265625 210.78515625 C-43.18068842 200.51345244 -41.80546188 189.62906454 -40.953125 179.28515625 C-38.19859392 159.74874869 -38.19859392 159.74874869 -43.078125 141.54296875 C-48.72221609 137.1923152 -55.19886694 136.64133376 -62.046875 136.5859375 C-62.87900513 136.5679863 -63.71113525 136.5500351 -64.56848145 136.53153992 C-67.19664614 136.47784998 -69.82463365 136.44367554 -72.453125 136.41015625 C-74.24742028 136.37694656 -76.04169229 136.34245358 -77.8359375 136.30664062 C-82.20835297 136.21975806 -86.57999293 136.15933953 -90.953125 136.09765625 C-90.953125 126.19765625 -90.953125 116.29765625 -90.953125 106.09765625 C-88.45878906 106.06027344 -85.96445313 106.02289063 -83.39453125 105.984375 C-80.95182019 105.93803061 -78.50925459 105.88684426 -76.06665039 105.83520508 C-74.38217163 105.80215712 -72.6975875 105.77406395 -71.01293945 105.7512207 C-56.4764188 105.97591219 -56.4764188 105.97591219 -43.515625 100.22265625 C-40.11232042 95.59416201 -39.702019 91.58265486 -39.765625 85.91015625 C-39.77529297 84.8569519 -39.77529297 84.8569519 -39.78515625 83.7824707 C-39.8560671 78.77162186 -40.13156794 73.78505322 -40.453125 68.78515625 C-40.9414277 60.89195943 -41.13020972 53.00521153 -41.203125 45.09765625 C-41.2350293 43.3974231 -41.2350293 43.3974231 -41.26757812 41.6628418 C-41.3187972 29.24313026 -38.44711335 21.01684622 -29.984375 12 C-21.66778931 3.93954105 -11.4888389 -0.04868152 0 0 Z " fill="#FCFCFC" transform="translate(128.953125,130.90234375)"/>
<path d="M0 0 C38.17132216 -1.01790192 38.17132216 -1.01790192 52.84375 11.72265625 C59.81998266 19.0906701 64.26791569 27.34603537 64.23046875 37.5859375 C64.22917969 38.83866455 64.22789062 40.0913916 64.2265625 41.38208008 C64.21367187 42.69974365 64.20078125 44.01740723 64.1875 45.375 C64.1806501 46.74177894 64.17414107 48.10855963 64.16796875 49.4753418 C64.11591716 57.47531192 63.82726014 65.40892605 63.234375 73.38671875 C62.95880007 77.63516554 62.81202393 81.86860801 62.75 86.125 C62.72873047 86.82471924 62.70746094 87.52443848 62.68554688 88.24536133 C62.65380983 92.9169404 63.51164793 96.05235734 66 100 C71.92000365 104.56333615 76.54875321 105.17123897 83.82421875 105.31640625 C85.11632011 105.3475779 85.11632011 105.3475779 86.43452454 105.37937927 C89.18543544 105.44474909 91.93644156 105.50370132 94.6875 105.5625 C96.55274421 105.60569717 98.4179788 105.64931185 100.28320312 105.69335938 C104.85537258 105.80120316 109.42761462 105.90036991 114 106 C114 115.9 114 125.8 114 136 C109.66488281 136.03867187 109.66488281 136.03867187 105.2421875 136.078125 C102.43219409 136.11657656 99.62238224 136.16172676 96.8125 136.20751953 C94.86499755 136.23568321 92.91738178 136.2569206 90.96972656 136.27099609 C88.16412532 136.29248946 85.35988 136.33917198 82.5546875 136.390625 C81.68883026 136.39185364 80.82297302 136.39308228 79.93087769 136.39434814 C74.48126312 136.52533209 71.32511227 137.38297217 67 141 C63.01497696 145.61945457 62.45179405 149.4044791 62.6875 155.3125 C62.70296875 156.10591797 62.7184375 156.89933594 62.734375 157.71679688 C62.85599019 162.82058094 63.16312131 167.90659537 63.5 173 C66.21552676 214.68984909 66.21552676 214.68984909 55.62890625 227.29296875 C46.76816724 236.57868325 36.4225682 241.35344969 23.49536133 242.24047852 C19.90761065 242.29317828 16.33746813 242.26285017 12.75 242.1875 C8.5425 242.125625 4.335 242.06375 0 242 C0 232.43 0 222.86 0 213 C2.784375 212.9175 5.56875 212.835 8.4375 212.75 C16.25133843 212.39221582 23.21666304 211.78333696 29 206 C31.28472392 201.43055216 31.15152702 196.89744843 31.125 191.875 C31.12886719 191.16601562 31.13273437 190.45703125 31.13671875 189.7265625 C31.12983072 185.89681835 30.94109851 182.15765984 30.51171875 178.3515625 C29.80273212 171.74242997 29.73869733 165.14200084 29.6875 158.5 C29.65849609 157.24574219 29.62949219 155.99148438 29.59960938 154.69921875 C29.54232625 146.28300516 30.07695061 138.46057389 35.85131836 131.89501953 C42.04888168 125.92076956 50.11300743 122.08144988 58.75 121.9375 C59.8225 121.958125 60.895 121.97875 62 122 C62 121.34 62 120.68 62 120 C61.05125 120.061875 60.1025 120.12375 59.125 120.1875 C50.97378107 120.17096609 43.26593476 117.10871358 37.41015625 111.46875 C29.85699536 103.34310014 29.56123167 95.2257654 29.75 84.5625 C29.76643555 82.69549438 29.76643555 82.69549438 29.78320312 80.79077148 C29.87961418 72.72210971 30.21940021 64.69722042 30.765625 56.6484375 C31.00047971 52.99253246 31.16914849 49.35007362 31.25 45.6875 C31.27578125 44.68074219 31.3015625 43.67398438 31.328125 42.63671875 C30.94691673 39.57343801 29.95239252 38.3274574 28 36 C28 35.34 28 34.68 28 34 C26.34015202 33.31653318 24.67163195 32.65411685 23 32 C22.13375 31.6596875 21.2675 31.319375 20.375 30.96875 C16.25203623 29.7853067 12.39013155 29.54910384 8.125 29.375 C4.103125 29.189375 4.103125 29.189375 0 29 C0 19.43 0 9.86 0 0 Z " fill="#FCFCFC" transform="translate(349,131)"/>
<path d="M0 0 C7.57619196 5.8128728 12.55502599 13.76151164 15 23 C15.33913565 26.68066978 15.28601704 30.30808133 15.1875 34 C15.125625 37.3 15.06375 40.6 15 44 C6.42 44 -2.16 44 -11 44 C-11.061875 41.855 -11.12375 39.71 -11.1875 37.5 C-11.7247766 29.90904914 -13.510089 25.37733323 -18.9375 20.125 C-26.15904628 16.18597476 -33.08672771 16.60895912 -41 18 C-45.43419026 19.6618898 -47.99036473 22.4358079 -50.14160156 26.60717773 C-53.18089258 33.77821344 -52.6054349 41.635981 -52.609375 49.28515625 C-52.62437589 50.95382782 -52.64110701 52.62248464 -52.65948486 54.29112244 C-52.7029568 58.65579963 -52.72311241 63.02027661 -52.73822021 67.38513184 C-52.75786446 71.84997295 -52.79982597 76.31460011 -52.83984375 80.77929688 C-52.91492743 89.51950116 -52.96328473 98.25955025 -53 107 C-61.25 107 -69.5 107 -78 107 C-78 70.7 -78 34.4 -78 -3 C-70.08 -3 -62.16 -3 -54 -3 C-53.67 2.94 -53.34 8.88 -53 15 C-52.34 13.494375 -51.68 11.98875 -51 10.4375 C-47.63729124 3.76875735 -43.072922 -0.99485068 -36.125 -3.9375 C-24.3282371 -7.18263028 -10.5756184 -6.15795502 0 0 Z " fill="#FCFCFC" transform="translate(287,213)"/>
<path d="M0 0 C1.67542976 0.28604898 3.34385343 0.61781233 5 1 C4.38348417 2.6490302 3.75652258 4.29415841 3.125 5.9375 C2.77695313 6.85402344 2.42890625 7.77054688 2.0703125 8.71484375 C1 11 1 11 -1 12 C-1.02687279 10.18757948 -1.04633715 8.37504767 -1.0625 6.5625 C-1.07410156 5.55316406 -1.08570313 4.54382813 -1.09765625 3.50390625 C-1 1 -1 1 0 0 Z " fill="#111111" transform="translate(234,217)"/>
</svg>
